<?xml version="1.0" encoding="UTF-8"?>
<svg width="30px" height="24px" viewBox="0 0 30 24" version="1.1" xmlns="http://www.w3.org/2000/svg" xmlns:xlink="http://www.w3.org/1999/xlink">
    <!-- Generator: Sketch 58 (84663) - https://sketch.com -->
    <title>ellipses-arrow</title>
    <desc>Created with Sketch.</desc>
    <g id="Page-1" stroke="none" stroke-width="1" fill="none" fill-rule="evenodd">
        <g id="right-arrow" fill="#04c3ff">
            <path d="M29.6517857,12 C29.5416667,12.5922619 29.3764881,12.9985119 29.15625,13.21875 L20.4375,21.9375 C20.0892857,22.2678571 19.6830357,22.4330357 19.21875,22.4330357 C18.7633929,22.4330357 18.3616071,22.2678571 18.0133929,21.9375 L17.0089286,20.9330357 C16.6696429,20.59375 16.5,20.1875 16.5,19.7142857 C16.5,19.2410714 16.6696429,18.8348214 17.0089286,18.4955357 L20.9330357,14.5714286 L16.6473214,14.5714286 C15.2271606,14.5714286 14.0758929,13.4201608 14.0758929,12 L14.0758929,12 L14.0758929,12 C14.0758929,10.5798392 15.2271606,9.42857143 16.6473214,9.42857143 L16.6473214,9.42857143 L16.6473214,9.42857143 L20.9330357,9.42857143 L17.0089286,5.49107143 C16.6696429,5.16964286 16.5,4.76785714 16.5,4.28571429 C16.5,3.80357143 16.6696429,3.40178571 17.0089286,3.08035714 L18.0133929,2.07589286 C18.3526786,1.73660714 18.7544643,1.56696429 19.21875,1.56696429 C19.6919643,1.56696429 20.0982143,1.73660714 20.4375,2.07589286 L29.15625,10.7946429 C29.3835343,11.0219272 29.5487129,11.4237129 29.6517857,12 Z" id="Path" fill-rule="nonzero"></path>
            <circle id="Oval" cx="9.79017857" cy="12" r="2.57142857"></circle>
            <circle id="Oval-Copy" cx="2.93303571" cy="12" r="2.57142857"></circle>
        </g>
    </g>
</svg>